<svg width="32" height="32" xmlns="http://www.w3.org/2000/svg" xmlns:xlink="http://www.w3.org/1999/xlink">
    <defs>
        <path id="a" d="M0 0h18.286v27.429H0z"/>
        <path id="c" d="M0 0h18.286v27.429H0z"/>
    </defs>
    <g fill="none" fill-rule="evenodd">
        <g transform="translate(13.714)">
            <mask id="b" fill="#fff">
                <use xlink:href="#a"/>
            </mask>
            <path d="M13.2 27.429c.126-.987.332-1.932.355-2.883.053-2.6-.946-4.857-2.46-6.92-1.77-2.41-4.06-4.239-6.557-5.85-1.379-.886-2.655-1.91-3.587-3.281C-1.1 5.49.32 1.298 3.761.2 5.174-.25 6.503.116 7.779.694c3.284 1.479 5.816 3.819 7.712 6.832 1.85 2.926 2.852 6.095 2.793 9.584-.064 3.959-1.502 7.273-4.522 9.89-.173.154-.373.286-.561.429" fill="#B60013" mask="url(#b)"/>
        </g>
        <g transform="translate(0 4.571)">
            <mask id="d" fill="#fff">
                <use xlink:href="#c"/>
            </mask>
            <path d="M5.092 0c-.13.975-.309 1.857-.35 2.75-.12 2.593.85 4.85 2.336 6.914 1.598 2.222 3.605 4.023 5.914 5.503 1.31.844 2.578 1.743 3.64 2.894 1.557 1.69 2.04 3.632 1.342 5.83-.924 2.882-3.908 4.277-6.826 3.145-3.42-1.326-6.038-3.638-8.06-6.64-1.497-2.23-2.562-4.65-2.915-7.33C-.454 8.32.549 4.084 4.215.72c.271-.242.56-.458.877-.721" fill="#B60013" mask="url(#d)"/>
        </g>
        <path d="m18.232 19.048-2.516-.315c-.595-.08-1.196-.15-1.791-.256-.136-.024-.342-.168-.36-.28-.215-1.459-.403-2.924-.613-4.483.816.094 1.55.174 2.284.265.692.085 1.39.165 2.077.282.15.024.374.18.391.3.215 1.433.395 2.869.58 4.301.007.03-.014.062-.052.186M5.333 6.095c.063-.328.125-.541.146-.757.1-1.125.817-1.73 1.914-2.123a15.382 15.382 0 0 1 5.823-.92c.092.003.19.012.285.023.044.005.092.024.213.06-.735 1.075-.918 2.246-.69 3.553-2.587-.875-5.115-.87-7.69.164M26.639 25.905c.168 1.143-.44 2.187-1.485 2.644-1.841.81-3.793 1.165-5.823 1.165-.324 0-.641-.038-1.045-.06.685-1.155.99-2.323.676-3.638 2.626.9 5.162.874 7.677-.111" fill="#B60013"/>
    </g>
</svg>
